<?xml version="1.0" encoding="iso-8859-1"?>
<!-- Generator: Adobe Illustrator 19.0.0, SVG Export Plug-In . SVG Version: 6.00 Build 0)  -->
<svg xmlns="http://www.w3.org/2000/svg" xmlns:xlink="http://www.w3.org/1999/xlink" version="1.1" id="Capa_1" x="0px" y="0px" viewBox="0 0 460 460" style="enable-background:new 0 0 460 460;" xml:space="preserve" width="512" height="512">
<g id="XMLID_818_">
	<path id="XMLID_817_" style="fill:#766E60;" d="M460,260L460,260c0,55.229-44.771,100-100,100h-10l-102.601,93.273   C242.638,457.602,236.435,460,230,460s-12.638-2.398-17.399-6.727L110,360h-10C44.771,360,0,315.229,0,260v0H460z"/>
	<path id="XMLID_1327_" style="fill:#6B6457;" d="M453.162,260H460v0c0,55.228-44.771,100-100,100h-10l-102.601,93.273   C242.638,457.602,236.435,460,230,460s-12.638-2.398-17.399-6.727L110,360h-10C44.771,360,0,315.229,0,260v0h6.838   C23.312,306.606,67.753,340,120,340c49.201,0,91.479-29.615,110-71.988C248.521,310.385,290.799,340,340,340   C392.247,340,436.688,306.606,453.162,260z"/>
	<path id="XMLID_2223_" style="fill:#987630;" d="M285,276.186c0,38.176-22.522,71.086-55,86.186c-32.478-15.099-55-48.01-55-86.186   s22.522-71.086,55-86.186C262.478,205.099,285,238.01,285,276.186z"/>
	<path id="XMLID_2222_" style="fill:#876531;" d="M230,362.372V190c32.478,15.099,55,48.01,55,86.186S262.478,347.272,230,362.372z"/>
	<path id="XMLID_2221_" style="fill:#AC8428;" d="M285,226.186c0,38.176-22.522,71.086-55,86.186c-32.478-15.099-55-48.01-55-86.186   s22.522-71.086,55-86.186C262.478,155.099,285,188.01,285,226.186z"/>
	<path id="XMLID_2220_" style="fill:#C18F2B;" d="M230,140v172.372c-32.478-15.099-55-48.01-55-86.186S197.522,155.099,230,140z"/>
	<path id="XMLID_2219_" style="fill:#312D26;" d="M430,0L430,0l0,180h-90V90C340,40.294,380.294,0,430,0z M30,0L30,0l0,180h90V90   C120,40.294,79.706,0,30,0z"/>
	<path id="XMLID_2218_" style="fill:#3E3A32;" d="M460,180h-0.418c0.272,3.298,0.418,6.632,0.418,10c0,66.274-53.726,120-120,120   c-49.201,0-91.479-29.615-110-71.988C211.479,280.385,169.201,310,120,310C53.726,310,0,256.274,0,190   c0-3.368,0.146-6.702,0.418-10H0V40h0c28.323,0,53.579,13.092,70.076,33.545C70.03,72.369,70,71.188,70,70v0h130   c16.569,0,30,13.431,30,30c0-16.569,13.431-30,30-30h130v0c0,1.188-0.03,2.368-0.076,3.545C406.421,53.092,431.677,40,460,40h0V180   z"/>
	<path id="XMLID_2217_" style="fill:#231F18;" d="M420,180c0,49.706-40.294,90-90,90s-90-40.294-90-90   c0-6.874,0.774-13.567,2.234-20H290c39.127,0,73-22.475,89.428-55.216C403.866,120.876,420,148.552,420,180z M40,180   c0,49.706,40.294,90,90,90s90-40.294,90-90c0-6.874-0.774-13.567-2.234-20H170c-39.127,0-73-22.475-89.428-55.216   C56.134,120.876,40,148.552,40,180z"/>
	<path id="XMLID_2216_" style="fill:#766E60;" d="M400,180c0,38.66-31.34,70-70,70s-70-31.34-70-70c0-6.952,1.028-13.661,2.915-20   H290c31.954,0,60.407-14.988,78.714-38.317C387.568,134.225,400,155.657,400,180z M60,180c0,38.66,31.34,70,70,70s70-31.34,70-70   c0-6.952-1.028-13.661-2.915-20H170c-31.954,0-60.407-14.988-78.714-38.317C72.432,134.225,60,155.657,60,180z"/>
	<path id="XMLID_2215_" style="fill:#A79A87;" d="M370,180c0,22.091-17.909,40-40,40s-40-17.909-40-40   c0-7.35,1.991-14.231,5.451-20.149c18.489-0.993,35.642-7.008,50.122-16.706C359.928,149.217,370,163.432,370,180z M90,180   c0,22.091,17.909,40,40,40s40-17.909,40-40c0-7.35-1.991-14.231-5.451-20.149c-18.489-0.993-35.642-7.008-50.122-16.706   C100.072,149.217,90,163.432,90,180z"/>
	<path id="XMLID_2214_" style="fill:#D1A76F;" d="M360,180c0,16.569-13.431,30-30,30s-30-13.431-30-30   c0-8.647,3.664-16.435,9.517-21.91c8.335-1.649,16.298-4.329,23.749-7.91C348.298,151.808,360,164.535,360,180z M100,180   c0,16.569,13.431,30,30,30s30-13.431,30-30c0-8.647-3.664-16.435-9.517-21.91c-8.335-1.649-16.298-4.329-23.749-7.91   C111.702,151.808,100,164.535,100,180z"/>
	<path id="XMLID_2213_" style="fill:#AC8428;" d="M330,200c-11.046,0-20-8.954-20-20s8.954-20,20-20s20,8.954,20,20   S341.046,200,330,200z M130,200c11.046,0,20-8.954,20-20s-8.954-20-20-20s-20,8.954-20,20S118.954,200,130,200z"/>
	<path id="XMLID_1268_" style="fill:#FFFFFF;" d="M340,200c-5.523,0-10-4.477-10-10s4.477-10,10-10s10,4.477,10,10   S345.523,200,340,200z M120,200c5.523,0,10-4.477,10-10s-4.477-10-10-10s-10,4.477-10,10S114.477,200,120,200z"/>
</g>















</svg>
